<?xml version="1.0" encoding="utf-8"?>
<!-- Generator: Adobe Illustrator 19.0.0, SVG Export Plug-In . SVG Version: 6.00 Build 0)  -->
<svg version="1.1" id="图层_1" xmlns="http://www.w3.org/2000/svg" xmlns:xlink="http://www.w3.org/1999/xlink" x="0px" y="0px"
	 viewBox="0 0 140.2 127.7" style="enable-background:new 0 0 140.2 127.7;" xml:space="preserve">
<style type="text/css">
	.st0{fill-rule:evenodd;clip-rule:evenodd;fill:#FFFFFF;}
</style>
<path class="st0" d="M134.8,14.4c0,1.4-1.1,2.5-2.5,2.5c-1.4,0-2.5-1.1-2.5-2.5c0-0.8,0.4-1.6,1-2c-0.3-0.4-0.5-0.8-0.5-1.3
	c0-1.1,0.9-2,2-2c1.1,0,2,0.9,2,2c0,0.5-0.2,1-0.5,1.3C134.4,12.9,134.8,13.6,134.8,14.4z M132.2,9.8c-0.7,0-1.2,0.6-1.2,1.2
	c0,0.4,0.2,0.7,0.5,1c0.2-0.1,0.5-0.1,0.8-0.1c0.3,0,0.5,0,0.8,0.1c0.3-0.2,0.5-0.6,0.5-1C133.5,10.4,132.9,9.8,132.2,9.8z
	 M132.2,12.7c-1,0-1.7,0.8-1.7,1.7s0.8,1.7,1.7,1.7c1,0,1.7-0.8,1.7-1.7S133.2,12.7,132.2,12.7z M130.1,19h0.2
	c0.2,0,0.3,0.1,0.4,0.2l3.2,5.3v-5.1c0-0.2,0.2-0.4,0.4-0.4h0c0.2,0,0.4,0.2,0.4,0.4v6.4c0,0.2-0.2,0.4-0.4,0.4h-0.2
	c-0.2,0-0.3-0.1-0.4-0.2l-3.2-5.3l0,5.1c0,0.2-0.2,0.4-0.4,0.4h0c-0.2,0-0.4-0.2-0.4-0.4v-6.4C129.7,19.2,129.9,19,130.1,19z
	 M127.4,26.2c-0.2,0-0.3-0.1-0.4-0.3l-0.7-1.9h-3.1l-0.7,1.9c-0.1,0.2-0.2,0.3-0.4,0.3h0c-0.3,0-0.5-0.3-0.4-0.6l2.4-6.3
	c0.1-0.2,0.3-0.4,0.6-0.4c0.3,0,0.5,0.2,0.6,0.4l2.4,6.3C127.9,25.9,127.7,26.2,127.4,26.2z M124.7,20.1l-1.2,3h2.4L124.7,20.1z
	 M126.1,16.8h-2.3c-0.2,0-0.4-0.2-0.4-0.4c0-0.2,0.2-0.4,0.4-0.4h0.7v-5.6h-0.2c-0.2,0-0.4-0.2-0.4-0.4s0.2-0.4,0.4-0.4h0.7
	c0.2,0,0.4,0.2,0.4,0.4v6.1h0.7c0.2,0,0.4,0.2,0.4,0.4C126.5,16.6,126.3,16.8,126.1,16.8z M117.8,17c-0.7,0-1.3-0.3-1.8-0.8
	c-0.5-0.5-0.7-1.1-0.7-1.8v-2.6c0-0.7,0.2-1.3,0.7-1.8c0.5-0.5,1.1-0.8,1.8-0.8c0.7,0,1.3,0.3,1.8,0.8c0.5,0.5,0.7,1.1,0.7,1.8v2.6
	c0,0.7-0.2,1.3-0.7,1.8C119.1,16.7,118.5,17,117.8,17z M119.4,11.8c0-0.5-0.1-0.9-0.4-1.2c-0.3-0.3-0.7-0.5-1.2-0.5
	c-0.5,0-0.9,0.2-1.2,0.5c-0.3,0.3-0.4,0.7-0.4,1.2v2.6c0,0.5,0.1,0.9,0.4,1.2c0.3,0.3,0.7,0.5,1.2,0.5s0.9-0.2,1.2-0.5
	c0.3-0.3,0.4-0.7,0.4-1.2V11.8z M117.2,18.8c0.7,0,1.3,0.2,1.8,0.7c0.4,0.4,0.6,0.8,0.7,1.2c0.1,0.3-0.1,0.5-0.4,0.5h0
	c-0.2,0-0.4-0.1-0.4-0.3c-0.1-0.3-0.2-0.5-0.4-0.8c-0.3-0.3-0.7-0.5-1.1-0.5c-0.5,0-0.9,0.1-1.2,0.5c-0.3,0.3-0.5,0.8-0.5,1.2v2.6
	c0,0.5,0.2,0.8,0.5,1.2c0.3,0.3,0.7,0.5,1.2,0.5c0.5,0,0.8-0.2,1.2-0.5c0.2-0.2,0.4-0.5,0.4-0.8c0-0.2,0.2-0.3,0.4-0.3h0
	c0.3,0,0.5,0.2,0.4,0.5c-0.1,0.5-0.3,0.9-0.7,1.2c-0.5,0.5-1.1,0.7-1.8,0.7c-0.7,0-1.3-0.2-1.8-0.7c-0.5-0.5-0.7-1.1-0.7-1.8v-2.6
	c0-0.7,0.2-1.3,0.7-1.8C115.9,19,116.5,18.8,117.2,18.8z M109.7,26.2c-0.7,0-1.3-0.2-1.8-0.7c-0.5-0.5-0.7-1.1-0.7-1.8v-4.3
	c0-0.2,0.2-0.4,0.4-0.4h0c0.2,0,0.4,0.2,0.4,0.4v4.3c0,0.5,0.2,0.8,0.5,1.2c0.3,0.3,0.7,0.5,1.1,0.5c0.5,0,0.9-0.1,1.2-0.5
	c0.3-0.3,0.5-0.8,0.5-1.2v-4.3c0-0.2,0.2-0.4,0.4-0.4h0c0.2,0,0.4,0.2,0.4,0.4v4.3c0,0.7-0.3,1.3-0.7,1.8
	C111,26,110.4,26.2,109.7,26.2z M111.7,16.8h-4.5V16h0c0,0,0,0,0,0v0h0c0-0.7,0.8-1.3,1.3-1.6c0.2-0.1,0.4-0.2,0.6-0.3
	c1-0.5,1.9-1.1,2-2.2c0-0.1,0-0.2,0-0.3c0-0.8-0.6-1.5-1.4-1.5c-0.7,0-1.3,0.5-1.4,1.1c0,0.2-0.2,0.3-0.4,0.3
	c-0.3,0-0.5-0.3-0.4-0.5c0.3-1.1,1.3-1.9,2.5-1.8c1.3,0.1,2.2,1.2,2.2,2.5c0,0.1,0,0.1,0,0.2h0c-0.1,1.5-1.4,2.3-2.5,2.9
	c-0.2,0.1-0.4,0.2-0.6,0.3c-0.5,0.3-0.8,0.7-0.9,0.9h3.6c0.2,0,0.4,0.2,0.4,0.4v0C112.1,16.6,111.9,16.8,111.7,16.8z M100.6,120.6
	h-1.3v-8.2h-4.3v-1.3h4.3v-5h1.3v5h4.3v1.3h-4.3V120.6z M93.5,101.7c-3.9,0-7-3.1-7-7l0-15.1c0-3.8-3.1-6.9-6.9-6.9c0,0,0,0-0.1,0
	c-0.1,0-0.2,0-0.3,0c-0.1,0-0.2,0-0.3,0c0,0,0,0-0.1,0c-3.8,0-6.9,3.1-6.9,6.9l0,15.1c0,3.9-3.1,7-7,7s-7-3.1-7-7l0-15.1
	c0-11.5,9.4-20.9,20.9-20.9v0c0,0,0,0,0,0c0.1,0,0.2,0,0.3,0c0.1,0,0.2,0,0.3,0c0,0,0,0,0,0v0c11.5,0,20.9,9.4,20.9,20.9l0,15.1
	C100.5,98.6,97.3,101.7,93.5,101.7z M79.6,50.8L79.6,50.8C79.6,50.8,79.6,50.8,79.6,50.8c-0.1,0-0.2,0-0.4,0c-0.1,0-0.2,0-0.3,0
	c0,0,0,0,0,0v0C67.3,50.8,58,41.4,58,29.9l0-15.1c0-3.9,3.1-7,7-7s7,3.1,7,7l0,15.1c0,3.8,3.1,6.9,6.9,6.9c0,0,0,0,0.1,0
	c0.1,0,0.2,0,0.3,0c0.1,0,0.2,0,0.3,0c0,0,0,0,0.1,0c3.8,0,6.9-3.1,6.9-6.9l0-15.1c0-3.9,3.1-7,7-7c3.9,0,7,3.1,7,7l0,15.1
	C100.5,41.4,91.1,50.8,79.6,50.8z M65.2,117.1v-9.4c0-0.6,0.5-1.1,1.1-1.1h0c0.6,0,1.1,0.5,1.1,1.1v11.7c0,0.8-0.6,1.4-1.4,1.5h0
	c-0.5,0-0.9-0.2-1.2-0.6l-7.1-9.9v9.4c0,0.6-0.5,1.1-1.1,1.1h0c-0.6,0-1.1-0.5-1.1-1.1v-11.7c0-0.8,0.6-1.5,1.5-1.5
	c0.5,0,0.9,0.2,1.2,0.6L65.2,117.1z M50.1,120.8L50.1,120.8c-0.5,0-0.9-0.3-1-0.7l-0.8-2.2h-6.2l-0.8,2.2c-0.2,0.4-0.6,0.7-1,0.7h0
	c-0.8,0-1.3-0.8-1-1.5l4.5-11.7c0.2-0.6,0.8-1,1.5-1l0,0c0.6,0,1.2,0.4,1.5,1l4.5,11.7C51.4,120.1,50.9,120.8,50.1,120.8z
	 M45.2,109.9l-2.2,5.8h4.5L45.2,109.9z M42.8,101.9c-2.7,0-5-1.5-6.2-3.8l0,0l-2.5-4.9c-2.6-5.1-9.9-5.1-12.5,0L19,98.1l0,0
	c-1.2,2.2-3.5,3.8-6.2,3.8c-3.9,0-7-3.1-7-7c0-1.1,0.3-2.2,0.7-3.1l0,0l14.9-29.1c1.1-2.3,3.5-4,6.3-4c2.9,0,5.4,1.8,6.4,4.3
	l14.5,28.3c0.6,1.1,1,2.3,1,3.6C49.8,98.8,46.7,101.9,42.8,101.9z M49.4,26.4c0,3.9-1.3,7.7-3.7,10.8L39,46
	c-6.3,8.6-8.9,10.1-11.6,9.8c-2.8-0.3-5.2-2.2-6-4.9c-0.7-2.6,0-5.1,1.6-6.8l11-14.3c1-1.2,1.5-2.8,1.5-4.3l0.1-10.6h0
	c0-3.9,3.1-7,7-7c3.9,0,7,3.1,7,7c0,0,0,0,0,0h0L49.4,26.4z M20.8,30.2L20.8,30.2c0,3.8-3.1,6.9-7,6.9c-3.9,0-7-3.1-7-7h0l0.1-15.3
	h0c0-3.9,3.1-7,7-7c3.9,0,7,3.1,7,7c0,0,0,0,0,0h0L20.8,30.2z M8,106.6L8,106.6c0.4,0,0.8,0.2,1,0.5l4,5.7l4-5.7
	c0.2-0.3,0.5-0.5,0.9-0.5h0.1c0.9,0,1.4,1,0.9,1.7l-4.7,6.8v4.6c0,0.6-0.5,1.1-1.1,1.1c-0.6,0-1.1-0.5-1.1-1.1v-4.6l-4.7-6.7
	C6.6,107.6,7.1,106.6,8,106.6z M24.6,106.7c0.6,0,1.1,0.5,1.1,1.1v6.4c0,2.9,1.3,4.5,3.8,4.4c2.5,0,3.8-1.5,3.8-4.4v-6.4
	c0-0.6,0.5-1.1,1.1-1.1c0.6,0,1.1,0.5,1.1,1.1v6.4c0,4-2,6.6-5.9,6.6c0,0,0,0,0,0c0,0,0,0,0,0c-3.9,0-5.9-2.6-5.9-6.6v-6.4
	C23.5,107.1,24,106.7,24.6,106.7z M76.4,118.4l1.1-0.8l0.7,1l-3.1,2.2l-0.7-1l0.8-0.5v-7.1h-1.6v-1.1h2.9V118.4z M74.6,106.4
	l0.8-0.8l2,2l-0.8,0.8L74.6,106.4z M85.6,106.4v3.1c0,0.6,0.2,0.8,0.9,0.8h1.2v1.2H86c-1.1,0-1.6-0.5-1.6-1.5v-2.4h-3.9v0.8
	c0,1.7-0.7,2.9-2.4,3.7l-0.9-1c1.5-0.6,2.1-1.6,2.1-3v-1.7H85.6z M79.4,114.6l0-1.9H86l0,1.9c0,0.1,0,2.5-2.2,4.2
	c1,0.4,2.2,0.7,3.9,0.7v1.1c-2.2,0-3.8-0.5-5-1.1c-1,0.5-2.3,0.9-4,1v-1.1c1.2-0.1,2.2-0.3,3-0.7C79.4,117.1,79.4,114.8,79.4,114.6z
	 M82.7,118.2c2.1-1.4,2.2-3.5,2.2-3.6v-0.8l-4.4,0v0.8C80.5,114.7,80.6,116.8,82.7,118.2z M91.5,106.4l0.8-0.8l2,2l-0.8,0.8
	L91.5,106.4z M93.6,118.4l1.1-0.8l0.7,1l-3.1,2.2l-0.7-1l0.8-0.5v-7.1h-1.6v-1.1h2.9V118.4z"/>
</svg>
