<?xml version="1.0" encoding="UTF-8"?>
<svg width="245px" height="705px" viewBox="0 0 245 705" version="1.1" xmlns="http://www.w3.org/2000/svg" xmlns:xlink="http://www.w3.org/1999/xlink">
    <!-- Generator: Sketch 48.2 (47327) - http://www.bohemiancoding.com/sketch -->
    <title>menu-texture</title>
    <desc>Created with Sketch.</desc>
    <defs></defs>
    <g id="7" stroke="none" stroke-width="1" fill="none" fill-rule="evenodd" transform="translate(-490.000000, -300.000000)" opacity="0.693213619">
        <g id="Group-22" transform="translate(215.000000, 128.000000)" fill="#FFFFFF">
            <g id="menu-texture" transform="translate(275.000000, 172.000000)">
                <g id="Group-16">
                    <g id="Group-21">
                        <g id="Group-19" opacity="0.175664646" transform="translate(120.000000, 40.000000)">
                            <g id="Group-18" transform="translate(0.000000, 60.000000)">
                                <circle id="Oval-3" cx="2.5" cy="2.5" r="2.5"></circle>
                                <circle id="Oval-3" cx="22.5" cy="2.5" r="2.5"></circle>
                                <circle id="Oval-3" cx="42.5" cy="2.5" r="2.5"></circle>
                                <circle id="Oval-3" cx="62.5" cy="2.5" r="2.5"></circle>
                                <circle id="Oval-3" cx="82.5" cy="2.5" r="2.5"></circle>
                                <circle id="Oval-3" cx="102.5" cy="2.5" r="2.5"></circle>
                                <circle id="Oval-3" cx="122.5" cy="2.5" r="2.5"></circle>
                            </g>
                            <g id="Group-18" transform="translate(0.000000, 40.000000)">
                                <circle id="Oval-3" cx="2.5" cy="2.5" r="2.5"></circle>
                                <circle id="Oval-3" cx="22.5" cy="2.5" r="2.5"></circle>
                                <circle id="Oval-3" cx="42.5" cy="2.5" r="2.5"></circle>
                                <circle id="Oval-3" cx="62.5" cy="2.5" r="2.5"></circle>
                                <circle id="Oval-3" cx="82.5" cy="2.5" r="2.5"></circle>
                                <circle id="Oval-3" cx="102.5" cy="2.5" r="2.5"></circle>
                                <circle id="Oval-3" cx="122.5" cy="2.5" r="2.5"></circle>
                            </g>
                            <g id="Group-18" transform="translate(0.000000, 20.000000)">
                                <circle id="Oval-3" cx="2.5" cy="2.5" r="2.5"></circle>
                                <circle id="Oval-3" cx="22.5" cy="2.5" r="2.5"></circle>
                                <circle id="Oval-3" cx="42.5" cy="2.5" r="2.5"></circle>
                                <circle id="Oval-3" cx="62.5" cy="2.5" r="2.5"></circle>
                                <circle id="Oval-3" cx="82.5" cy="2.5" r="2.5"></circle>
                                <circle id="Oval-3" cx="102.5" cy="2.5" r="2.5"></circle>
                                <circle id="Oval-3" cx="122.5" cy="2.5" r="2.5"></circle>
                            </g>
                            <g id="Group-18">
                                <circle id="Oval-3" cx="2.5" cy="2.5" r="2.5"></circle>
                                <circle id="Oval-3" cx="22.5" cy="2.5" r="2.5"></circle>
                                <circle id="Oval-3" cx="42.5" cy="2.5" r="2.5"></circle>
                                <circle id="Oval-3" cx="62.5" cy="2.5" r="2.5"></circle>
                                <circle id="Oval-3" cx="82.5" cy="2.5" r="2.5"></circle>
                                <circle id="Oval-3" cx="102.5" cy="2.5" r="2.5"></circle>
                                <circle id="Oval-3" cx="122.5" cy="2.5" r="2.5"></circle>
                            </g>
                        </g>
                        <g id="Group-20" transform="translate(60.000000, 0.000000)" opacity="0.18">
                            <path d="M2.5,65 C1.11928813,65 0,63.8807119 0,62.5 C0,61.1192881 1.11928813,60 2.5,60 C3.88071187,60 5,61.1192881 5,62.5 C5,63.8807119 3.88071187,65 2.5,65 Z M22.5,65 C21.1192881,65 20,63.8807119 20,62.5 C20,61.1192881 21.1192881,60 22.5,60 C23.8807119,60 25,61.1192881 25,62.5 C25,63.8807119 23.8807119,65 22.5,65 Z M42.5,65 C41.1192881,65 40,63.8807119 40,62.5 C40,61.1192881 41.1192881,60 42.5,60 C43.8807119,60 45,61.1192881 45,62.5 C45,63.8807119 43.8807119,65 42.5,65 Z" id="Combined-Shape"></path>
                            <path d="M2.5,85 C1.11928813,85 0,83.8807119 0,82.5 C0,81.1192881 1.11928813,80 2.5,80 C3.88071187,80 5,81.1192881 5,82.5 C5,83.8807119 3.88071187,85 2.5,85 Z M22.5,85 C21.1192881,85 20,83.8807119 20,82.5 C20,81.1192881 21.1192881,80 22.5,80 C23.8807119,80 25,81.1192881 25,82.5 C25,83.8807119 23.8807119,85 22.5,85 Z M42.5,85 C41.1192881,85 40,83.8807119 40,82.5 C40,81.1192881 41.1192881,80 42.5,80 C43.8807119,80 45,81.1192881 45,82.5 C45,83.8807119 43.8807119,85 42.5,85 Z" id="Combined-Shape"></path>
                            <path d="M2.5,105 C1.11928813,105 0,103.880712 0,102.5 C0,101.119288 1.11928813,100 2.5,100 C3.88071187,100 5,101.119288 5,102.5 C5,103.880712 3.88071187,105 2.5,105 Z M22.5,105 C21.1192881,105 20,103.880712 20,102.5 C20,101.119288 21.1192881,100 22.5,100 C23.8807119,100 25,101.119288 25,102.5 C25,103.880712 23.8807119,105 22.5,105 Z M42.5,105 C41.1192881,105 40,103.880712 40,102.5 C40,101.119288 41.1192881,100 42.5,100 C43.8807119,100 45,101.119288 45,102.5 C45,103.880712 43.8807119,105 42.5,105 Z" id="Combined-Shape"></path>
                            <path d="M2.5,5 C1.11928813,5 0,3.88071187 0,2.5 C0,1.11928813 1.11928813,0 2.5,0 C3.88071187,0 5,1.11928813 5,2.5 C5,3.88071187 3.88071187,5 2.5,5 Z M22.5,5 C21.1192881,5 20,3.88071187 20,2.5 C20,1.11928813 21.1192881,0 22.5,0 C23.8807119,0 25,1.11928813 25,2.5 C25,3.88071187 23.8807119,5 22.5,5 Z M42.5,5 C41.1192881,5 40,3.88071187 40,2.5 C40,1.11928813 41.1192881,0 42.5,0 C43.8807119,0 45,1.11928813 45,2.5 C45,3.88071187 43.8807119,5 42.5,5 Z" id="Combined-Shape"></path>
                            <path d="M2.5,25 C1.11928813,25 0,23.8807119 0,22.5 C0,21.1192881 1.11928813,20 2.5,20 C3.88071187,20 5,21.1192881 5,22.5 C5,23.8807119 3.88071187,25 2.5,25 Z M22.5,25 C21.1192881,25 20,23.8807119 20,22.5 C20,21.1192881 21.1192881,20 22.5,20 C23.8807119,20 25,21.1192881 25,22.5 C25,23.8807119 23.8807119,25 22.5,25 Z M42.5,25 C41.1192881,25 40,23.8807119 40,22.5 C40,21.1192881 41.1192881,20 42.5,20 C43.8807119,20 45,21.1192881 45,22.5 C45,23.8807119 43.8807119,25 42.5,25 Z" id="Combined-Shape"></path>
                            <path d="M2.5,45 C1.11928813,45 0,43.8807119 0,42.5 C0,41.1192881 1.11928813,40 2.5,40 C3.88071187,40 5,41.1192881 5,42.5 C5,43.8807119 3.88071187,45 2.5,45 Z M22.5,45 C21.1192881,45 20,43.8807119 20,42.5 C20,41.1192881 21.1192881,40 22.5,40 C23.8807119,40 25,41.1192881 25,42.5 C25,43.8807119 23.8807119,45 22.5,45 Z M42.5,45 C41.1192881,45 40,43.8807119 40,42.5 C40,41.1192881 41.1192881,40 42.5,40 C43.8807119,40 45,41.1192881 45,42.5 C45,43.8807119 43.8807119,45 42.5,45 Z" id="Combined-Shape"></path>
                        </g>
                        <g id="Group-20" opacity="0.18">
                            <path d="M2.5,65 C1.11928813,65 0,63.8807119 0,62.5 C0,61.1192881 1.11928813,60 2.5,60 C3.88071187,60 5,61.1192881 5,62.5 C5,63.8807119 3.88071187,65 2.5,65 Z M22.5,65 C21.1192881,65 20,63.8807119 20,62.5 C20,61.1192881 21.1192881,60 22.5,60 C23.8807119,60 25,61.1192881 25,62.5 C25,63.8807119 23.8807119,65 22.5,65 Z M42.5,65 C41.1192881,65 40,63.8807119 40,62.5 C40,61.1192881 41.1192881,60 42.5,60 C43.8807119,60 45,61.1192881 45,62.5 C45,63.8807119 43.8807119,65 42.5,65 Z" id="Combined-Shape"></path>
                            <path d="M2.5,85 C1.11928813,85 0,83.8807119 0,82.5 C0,81.1192881 1.11928813,80 2.5,80 C3.88071187,80 5,81.1192881 5,82.5 C5,83.8807119 3.88071187,85 2.5,85 Z M22.5,85 C21.1192881,85 20,83.8807119 20,82.5 C20,81.1192881 21.1192881,80 22.5,80 C23.8807119,80 25,81.1192881 25,82.5 C25,83.8807119 23.8807119,85 22.5,85 Z M42.5,85 C41.1192881,85 40,83.8807119 40,82.5 C40,81.1192881 41.1192881,80 42.5,80 C43.8807119,80 45,81.1192881 45,82.5 C45,83.8807119 43.8807119,85 42.5,85 Z" id="Combined-Shape"></path>
                            <path d="M2.5,105 C1.11928813,105 0,103.880712 0,102.5 C0,101.119288 1.11928813,100 2.5,100 C3.88071187,100 5,101.119288 5,102.5 C5,103.880712 3.88071187,105 2.5,105 Z M22.5,105 C21.1192881,105 20,103.880712 20,102.5 C20,101.119288 21.1192881,100 22.5,100 C23.8807119,100 25,101.119288 25,102.5 C25,103.880712 23.8807119,105 22.5,105 Z M42.5,105 C41.1192881,105 40,103.880712 40,102.5 C40,101.119288 41.1192881,100 42.5,100 C43.8807119,100 45,101.119288 45,102.5 C45,103.880712 43.8807119,105 42.5,105 Z" id="Combined-Shape"></path>
                            <path d="M2.5,5 C1.11928813,5 0,3.88071187 0,2.5 C0,1.11928813 1.11928813,0 2.5,0 C3.88071187,0 5,1.11928813 5,2.5 C5,3.88071187 3.88071187,5 2.5,5 Z M22.5,5 C21.1192881,5 20,3.88071187 20,2.5 C20,1.11928813 21.1192881,0 22.5,0 C23.8807119,0 25,1.11928813 25,2.5 C25,3.88071187 23.8807119,5 22.5,5 Z M42.5,5 C41.1192881,5 40,3.88071187 40,2.5 C40,1.11928813 41.1192881,0 42.5,0 C43.8807119,0 45,1.11928813 45,2.5 C45,3.88071187 43.8807119,5 42.5,5 Z" id="Combined-Shape"></path>
                            <path d="M2.5,25 C1.11928813,25 0,23.8807119 0,22.5 C0,21.1192881 1.11928813,20 2.5,20 C3.88071187,20 5,21.1192881 5,22.5 C5,23.8807119 3.88071187,25 2.5,25 Z M22.5,25 C21.1192881,25 20,23.8807119 20,22.5 C20,21.1192881 21.1192881,20 22.5,20 C23.8807119,20 25,21.1192881 25,22.5 C25,23.8807119 23.8807119,25 22.5,25 Z M42.5,25 C41.1192881,25 40,23.8807119 40,22.5 C40,21.1192881 41.1192881,20 42.5,20 C43.8807119,20 45,21.1192881 45,22.5 C45,23.8807119 43.8807119,25 42.5,25 Z" id="Combined-Shape"></path>
                            <path d="M2.5,45 C1.11928813,45 0,43.8807119 0,42.5 C0,41.1192881 1.11928813,40 2.5,40 C3.88071187,40 5,41.1192881 5,42.5 C5,43.8807119 3.88071187,45 2.5,45 Z M22.5,45 C21.1192881,45 20,43.8807119 20,42.5 C20,41.1192881 21.1192881,40 22.5,40 C23.8807119,40 25,41.1192881 25,42.5 C25,43.8807119 23.8807119,45 22.5,45 Z M42.5,45 C41.1192881,45 40,43.8807119 40,42.5 C40,41.1192881 41.1192881,40 42.5,40 C43.8807119,40 45,41.1192881 45,42.5 C45,43.8807119 43.8807119,45 42.5,45 Z" id="Combined-Shape"></path>
                        </g>
                        <g id="Group-19" opacity="0.175664646" transform="translate(120.000000, 0.000000)">
                            <g id="Group-18" transform="translate(0.000000, 20.000000)">
                                <circle id="Oval-3" cx="2.5" cy="2.5" r="2.5"></circle>
                                <circle id="Oval-3" cx="22.5" cy="2.5" r="2.5"></circle>
                                <circle id="Oval-3" cx="42.5" cy="2.5" r="2.5"></circle>
                                <circle id="Oval-3" cx="62.5" cy="2.5" r="2.5"></circle>
                                <circle id="Oval-3" cx="82.5" cy="2.5" r="2.5"></circle>
                                <circle id="Oval-3" cx="102.5" cy="2.5" r="2.5"></circle>
                                <circle id="Oval-3" cx="122.5" cy="2.5" r="2.5"></circle>
                            </g>
                            <g id="Group-18">
                                <circle id="Oval-3" cx="2.5" cy="2.5" r="2.5"></circle>
                                <circle id="Oval-3" cx="22.5" cy="2.5" r="2.5"></circle>
                                <circle id="Oval-3" cx="42.5" cy="2.5" r="2.5"></circle>
                                <circle id="Oval-3" cx="62.5" cy="2.5" r="2.5"></circle>
                                <circle id="Oval-3" cx="82.5" cy="2.5" r="2.5"></circle>
                                <circle id="Oval-3" cx="102.5" cy="2.5" r="2.5"></circle>
                                <circle id="Oval-3" cx="122.5" cy="2.5" r="2.5"></circle>
                            </g>
                        </g>
                    </g>
                    <g id="Group-21" transform="translate(0.000000, 120.000000)">
                        <g id="Group-19" opacity="0.175664646" transform="translate(120.000000, 40.000000)">
                            <g id="Group-18" transform="translate(0.000000, 60.000000)">
                                <circle id="Oval-3" cx="2.5" cy="2.5" r="2.5"></circle>
                                <circle id="Oval-3" cx="22.5" cy="2.5" r="2.5"></circle>
                                <circle id="Oval-3" cx="42.5" cy="2.5" r="2.5"></circle>
                                <circle id="Oval-3" cx="62.5" cy="2.5" r="2.5"></circle>
                                <circle id="Oval-3" cx="82.5" cy="2.5" r="2.5"></circle>
                                <circle id="Oval-3" cx="102.5" cy="2.5" r="2.5"></circle>
                                <circle id="Oval-3" cx="122.5" cy="2.5" r="2.5"></circle>
                            </g>
                            <g id="Group-18" transform="translate(0.000000, 40.000000)">
                                <circle id="Oval-3" cx="2.5" cy="2.5" r="2.5"></circle>
                                <circle id="Oval-3" cx="22.5" cy="2.5" r="2.5"></circle>
                                <circle id="Oval-3" cx="42.5" cy="2.5" r="2.5"></circle>
                                <circle id="Oval-3" cx="62.5" cy="2.5" r="2.5"></circle>
                                <circle id="Oval-3" cx="82.5" cy="2.5" r="2.5"></circle>
                                <circle id="Oval-3" cx="102.5" cy="2.5" r="2.5"></circle>
                                <circle id="Oval-3" cx="122.5" cy="2.5" r="2.5"></circle>
                            </g>
                            <g id="Group-18" transform="translate(0.000000, 20.000000)">
                                <circle id="Oval-3" cx="2.5" cy="2.5" r="2.5"></circle>
                                <circle id="Oval-3" cx="22.5" cy="2.5" r="2.5"></circle>
                                <circle id="Oval-3" cx="42.5" cy="2.5" r="2.5"></circle>
                                <circle id="Oval-3" cx="62.5" cy="2.5" r="2.5"></circle>
                                <circle id="Oval-3" cx="82.5" cy="2.5" r="2.5"></circle>
                                <circle id="Oval-3" cx="102.5" cy="2.5" r="2.5"></circle>
                                <circle id="Oval-3" cx="122.5" cy="2.5" r="2.5"></circle>
                            </g>
                            <g id="Group-18">
                                <circle id="Oval-3" cx="2.5" cy="2.5" r="2.5"></circle>
                                <circle id="Oval-3" cx="22.5" cy="2.5" r="2.5"></circle>
                                <circle id="Oval-3" cx="42.5" cy="2.5" r="2.5"></circle>
                                <circle id="Oval-3" cx="62.5" cy="2.5" r="2.5"></circle>
                                <circle id="Oval-3" cx="82.5" cy="2.5" r="2.5"></circle>
                                <circle id="Oval-3" cx="102.5" cy="2.5" r="2.5"></circle>
                                <circle id="Oval-3" cx="122.5" cy="2.5" r="2.5"></circle>
                            </g>
                        </g>
                        <g id="Group-20" transform="translate(60.000000, 0.000000)" opacity="0.18">
                            <path d="M2.5,65 C1.11928813,65 0,63.8807119 0,62.5 C0,61.1192881 1.11928813,60 2.5,60 C3.88071187,60 5,61.1192881 5,62.5 C5,63.8807119 3.88071187,65 2.5,65 Z M22.5,65 C21.1192881,65 20,63.8807119 20,62.5 C20,61.1192881 21.1192881,60 22.5,60 C23.8807119,60 25,61.1192881 25,62.5 C25,63.8807119 23.8807119,65 22.5,65 Z M42.5,65 C41.1192881,65 40,63.8807119 40,62.5 C40,61.1192881 41.1192881,60 42.5,60 C43.8807119,60 45,61.1192881 45,62.5 C45,63.8807119 43.8807119,65 42.5,65 Z" id="Combined-Shape"></path>
                            <path d="M2.5,85 C1.11928813,85 0,83.8807119 0,82.5 C0,81.1192881 1.11928813,80 2.5,80 C3.88071187,80 5,81.1192881 5,82.5 C5,83.8807119 3.88071187,85 2.5,85 Z M22.5,85 C21.1192881,85 20,83.8807119 20,82.5 C20,81.1192881 21.1192881,80 22.5,80 C23.8807119,80 25,81.1192881 25,82.5 C25,83.8807119 23.8807119,85 22.5,85 Z M42.5,85 C41.1192881,85 40,83.8807119 40,82.5 C40,81.1192881 41.1192881,80 42.5,80 C43.8807119,80 45,81.1192881 45,82.5 C45,83.8807119 43.8807119,85 42.5,85 Z" id="Combined-Shape"></path>
                            <path d="M2.5,105 C1.11928813,105 0,103.880712 0,102.5 C0,101.119288 1.11928813,100 2.5,100 C3.88071187,100 5,101.119288 5,102.5 C5,103.880712 3.88071187,105 2.5,105 Z M22.5,105 C21.1192881,105 20,103.880712 20,102.5 C20,101.119288 21.1192881,100 22.5,100 C23.8807119,100 25,101.119288 25,102.5 C25,103.880712 23.8807119,105 22.5,105 Z M42.5,105 C41.1192881,105 40,103.880712 40,102.5 C40,101.119288 41.1192881,100 42.5,100 C43.8807119,100 45,101.119288 45,102.5 C45,103.880712 43.8807119,105 42.5,105 Z" id="Combined-Shape"></path>
                            <path d="M2.5,5 C1.11928813,5 0,3.88071187 0,2.5 C0,1.11928813 1.11928813,0 2.5,0 C3.88071187,0 5,1.11928813 5,2.5 C5,3.88071187 3.88071187,5 2.5,5 Z M22.5,5 C21.1192881,5 20,3.88071187 20,2.5 C20,1.11928813 21.1192881,0 22.5,0 C23.8807119,0 25,1.11928813 25,2.5 C25,3.88071187 23.8807119,5 22.5,5 Z M42.5,5 C41.1192881,5 40,3.88071187 40,2.5 C40,1.11928813 41.1192881,0 42.5,0 C43.8807119,0 45,1.11928813 45,2.5 C45,3.88071187 43.8807119,5 42.5,5 Z" id="Combined-Shape"></path>
                            <path d="M2.5,25 C1.11928813,25 0,23.8807119 0,22.5 C0,21.1192881 1.11928813,20 2.5,20 C3.88071187,20 5,21.1192881 5,22.5 C5,23.8807119 3.88071187,25 2.5,25 Z M22.5,25 C21.1192881,25 20,23.8807119 20,22.5 C20,21.1192881 21.1192881,20 22.5,20 C23.8807119,20 25,21.1192881 25,22.5 C25,23.8807119 23.8807119,25 22.5,25 Z M42.5,25 C41.1192881,25 40,23.8807119 40,22.5 C40,21.1192881 41.1192881,20 42.5,20 C43.8807119,20 45,21.1192881 45,22.5 C45,23.8807119 43.8807119,25 42.5,25 Z" id="Combined-Shape"></path>
                            <path d="M2.5,45 C1.11928813,45 0,43.8807119 0,42.5 C0,41.1192881 1.11928813,40 2.5,40 C3.88071187,40 5,41.1192881 5,42.5 C5,43.8807119 3.88071187,45 2.5,45 Z M22.5,45 C21.1192881,45 20,43.8807119 20,42.5 C20,41.1192881 21.1192881,40 22.5,40 C23.8807119,40 25,41.1192881 25,42.5 C25,43.8807119 23.8807119,45 22.5,45 Z M42.5,45 C41.1192881,45 40,43.8807119 40,42.5 C40,41.1192881 41.1192881,40 42.5,40 C43.8807119,40 45,41.1192881 45,42.5 C45,43.8807119 43.8807119,45 42.5,45 Z" id="Combined-Shape"></path>
                        </g>
                        <g id="Group-20" opacity="0.18">
                            <path d="M2.5,65 C1.11928813,65 0,63.8807119 0,62.5 C0,61.1192881 1.11928813,60 2.5,60 C3.88071187,60 5,61.1192881 5,62.5 C5,63.8807119 3.88071187,65 2.5,65 Z M22.5,65 C21.1192881,65 20,63.8807119 20,62.5 C20,61.1192881 21.1192881,60 22.5,60 C23.8807119,60 25,61.1192881 25,62.5 C25,63.8807119 23.8807119,65 22.5,65 Z M42.5,65 C41.1192881,65 40,63.8807119 40,62.5 C40,61.1192881 41.1192881,60 42.5,60 C43.8807119,60 45,61.1192881 45,62.5 C45,63.8807119 43.8807119,65 42.5,65 Z" id="Combined-Shape"></path>
                            <path d="M2.5,85 C1.11928813,85 0,83.8807119 0,82.5 C0,81.1192881 1.11928813,80 2.5,80 C3.88071187,80 5,81.1192881 5,82.5 C5,83.8807119 3.88071187,85 2.5,85 Z M22.5,85 C21.1192881,85 20,83.8807119 20,82.5 C20,81.1192881 21.1192881,80 22.5,80 C23.8807119,80 25,81.1192881 25,82.5 C25,83.8807119 23.8807119,85 22.5,85 Z M42.5,85 C41.1192881,85 40,83.8807119 40,82.5 C40,81.1192881 41.1192881,80 42.5,80 C43.8807119,80 45,81.1192881 45,82.5 C45,83.8807119 43.8807119,85 42.5,85 Z" id="Combined-Shape"></path>
                            <path d="M2.5,105 C1.11928813,105 0,103.880712 0,102.5 C0,101.119288 1.11928813,100 2.5,100 C3.88071187,100 5,101.119288 5,102.5 C5,103.880712 3.88071187,105 2.5,105 Z M22.5,105 C21.1192881,105 20,103.880712 20,102.5 C20,101.119288 21.1192881,100 22.5,100 C23.8807119,100 25,101.119288 25,102.5 C25,103.880712 23.8807119,105 22.5,105 Z M42.5,105 C41.1192881,105 40,103.880712 40,102.5 C40,101.119288 41.1192881,100 42.5,100 C43.8807119,100 45,101.119288 45,102.5 C45,103.880712 43.8807119,105 42.5,105 Z" id="Combined-Shape"></path>
                            <path d="M2.5,5 C1.11928813,5 0,3.88071187 0,2.5 C0,1.11928813 1.11928813,0 2.5,0 C3.88071187,0 5,1.11928813 5,2.5 C5,3.88071187 3.88071187,5 2.5,5 Z M22.5,5 C21.1192881,5 20,3.88071187 20,2.5 C20,1.11928813 21.1192881,0 22.5,0 C23.8807119,0 25,1.11928813 25,2.5 C25,3.88071187 23.8807119,5 22.5,5 Z M42.5,5 C41.1192881,5 40,3.88071187 40,2.5 C40,1.11928813 41.1192881,0 42.5,0 C43.8807119,0 45,1.11928813 45,2.5 C45,3.88071187 43.8807119,5 42.5,5 Z" id="Combined-Shape"></path>
                            <path d="M2.5,25 C1.11928813,25 0,23.8807119 0,22.5 C0,21.1192881 1.11928813,20 2.5,20 C3.88071187,20 5,21.1192881 5,22.5 C5,23.8807119 3.88071187,25 2.5,25 Z M22.5,25 C21.1192881,25 20,23.8807119 20,22.5 C20,21.1192881 21.1192881,20 22.5,20 C23.8807119,20 25,21.1192881 25,22.5 C25,23.8807119 23.8807119,25 22.5,25 Z M42.5,25 C41.1192881,25 40,23.8807119 40,22.5 C40,21.1192881 41.1192881,20 42.5,20 C43.8807119,20 45,21.1192881 45,22.5 C45,23.8807119 43.8807119,25 42.5,25 Z" id="Combined-Shape"></path>
                            <path d="M2.5,45 C1.11928813,45 0,43.8807119 0,42.5 C0,41.1192881 1.11928813,40 2.5,40 C3.88071187,40 5,41.1192881 5,42.5 C5,43.8807119 3.88071187,45 2.5,45 Z M22.5,45 C21.1192881,45 20,43.8807119 20,42.5 C20,41.1192881 21.1192881,40 22.5,40 C23.8807119,40 25,41.1192881 25,42.5 C25,43.8807119 23.8807119,45 22.5,45 Z M42.5,45 C41.1192881,45 40,43.8807119 40,42.5 C40,41.1192881 41.1192881,40 42.5,40 C43.8807119,40 45,41.1192881 45,42.5 C45,43.8807119 43.8807119,45 42.5,45 Z" id="Combined-Shape"></path>
                        </g>
                        <g id="Group-19" opacity="0.175664646" transform="translate(120.000000, 0.000000)">
                            <g id="Group-18" transform="translate(0.000000, 20.000000)">
                                <circle id="Oval-3" cx="2.5" cy="2.5" r="2.5"></circle>
                                <circle id="Oval-3" cx="22.5" cy="2.5" r="2.5"></circle>
                                <circle id="Oval-3" cx="42.5" cy="2.5" r="2.5"></circle>
                                <circle id="Oval-3" cx="62.5" cy="2.5" r="2.5"></circle>
                                <circle id="Oval-3" cx="82.5" cy="2.5" r="2.5"></circle>
                                <circle id="Oval-3" cx="102.5" cy="2.5" r="2.5"></circle>
                                <circle id="Oval-3" cx="122.5" cy="2.5" r="2.5"></circle>
                            </g>
                            <g id="Group-18">
                                <circle id="Oval-3" cx="2.5" cy="2.5" r="2.5"></circle>
                                <circle id="Oval-3" cx="22.5" cy="2.5" r="2.5"></circle>
                                <circle id="Oval-3" cx="42.5" cy="2.5" r="2.5"></circle>
                                <circle id="Oval-3" cx="62.5" cy="2.5" r="2.5"></circle>
                                <circle id="Oval-3" cx="82.5" cy="2.5" r="2.5"></circle>
                                <circle id="Oval-3" cx="102.5" cy="2.5" r="2.5"></circle>
                                <circle id="Oval-3" cx="122.5" cy="2.5" r="2.5"></circle>
                            </g>
                        </g>
                    </g>
                </g>
                <g id="Group-16" transform="translate(0.000000, 240.000000)">
                    <g id="Group-21">
                        <g id="Group-19" opacity="0.175664646" transform="translate(120.000000, 40.000000)">
                            <g id="Group-18" transform="translate(0.000000, 60.000000)">
                                <circle id="Oval-3" cx="2.5" cy="2.5" r="2.5"></circle>
                                <circle id="Oval-3" cx="22.5" cy="2.5" r="2.5"></circle>
                                <circle id="Oval-3" cx="42.5" cy="2.5" r="2.5"></circle>
                                <circle id="Oval-3" cx="62.5" cy="2.5" r="2.5"></circle>
                                <circle id="Oval-3" cx="82.5" cy="2.5" r="2.5"></circle>
                                <circle id="Oval-3" cx="102.5" cy="2.5" r="2.5"></circle>
                                <circle id="Oval-3" cx="122.5" cy="2.5" r="2.5"></circle>
                            </g>
                            <g id="Group-18" transform="translate(0.000000, 40.000000)">
                                <circle id="Oval-3" cx="2.5" cy="2.5" r="2.5"></circle>
                                <circle id="Oval-3" cx="22.5" cy="2.5" r="2.5"></circle>
                                <circle id="Oval-3" cx="42.5" cy="2.5" r="2.5"></circle>
                                <circle id="Oval-3" cx="62.5" cy="2.5" r="2.5"></circle>
                                <circle id="Oval-3" cx="82.5" cy="2.5" r="2.5"></circle>
                                <circle id="Oval-3" cx="102.5" cy="2.5" r="2.5"></circle>
                                <circle id="Oval-3" cx="122.5" cy="2.5" r="2.5"></circle>
                            </g>
                            <g id="Group-18" transform="translate(0.000000, 20.000000)">
                                <circle id="Oval-3" cx="2.5" cy="2.5" r="2.5"></circle>
                                <circle id="Oval-3" cx="22.5" cy="2.5" r="2.5"></circle>
                                <circle id="Oval-3" cx="42.5" cy="2.5" r="2.5"></circle>
                                <circle id="Oval-3" cx="62.5" cy="2.5" r="2.5"></circle>
                                <circle id="Oval-3" cx="82.5" cy="2.5" r="2.5"></circle>
                                <circle id="Oval-3" cx="102.5" cy="2.5" r="2.5"></circle>
                                <circle id="Oval-3" cx="122.5" cy="2.5" r="2.5"></circle>
                            </g>
                            <g id="Group-18">
                                <circle id="Oval-3" cx="2.5" cy="2.5" r="2.5"></circle>
                                <circle id="Oval-3" cx="22.5" cy="2.5" r="2.5"></circle>
                                <circle id="Oval-3" cx="42.5" cy="2.5" r="2.5"></circle>
                                <circle id="Oval-3" cx="62.5" cy="2.5" r="2.5"></circle>
                                <circle id="Oval-3" cx="82.5" cy="2.5" r="2.5"></circle>
                                <circle id="Oval-3" cx="102.5" cy="2.5" r="2.5"></circle>
                                <circle id="Oval-3" cx="122.5" cy="2.5" r="2.5"></circle>
                            </g>
                        </g>
                        <g id="Group-20" transform="translate(60.000000, 0.000000)" opacity="0.18">
                            <path d="M2.5,65 C1.11928813,65 0,63.8807119 0,62.5 C0,61.1192881 1.11928813,60 2.5,60 C3.88071187,60 5,61.1192881 5,62.5 C5,63.8807119 3.88071187,65 2.5,65 Z M22.5,65 C21.1192881,65 20,63.8807119 20,62.5 C20,61.1192881 21.1192881,60 22.5,60 C23.8807119,60 25,61.1192881 25,62.5 C25,63.8807119 23.8807119,65 22.5,65 Z M42.5,65 C41.1192881,65 40,63.8807119 40,62.5 C40,61.1192881 41.1192881,60 42.5,60 C43.8807119,60 45,61.1192881 45,62.5 C45,63.8807119 43.8807119,65 42.5,65 Z" id="Combined-Shape"></path>
                            <path d="M2.5,85 C1.11928813,85 0,83.8807119 0,82.5 C0,81.1192881 1.11928813,80 2.5,80 C3.88071187,80 5,81.1192881 5,82.5 C5,83.8807119 3.88071187,85 2.5,85 Z M22.5,85 C21.1192881,85 20,83.8807119 20,82.5 C20,81.1192881 21.1192881,80 22.5,80 C23.8807119,80 25,81.1192881 25,82.5 C25,83.8807119 23.8807119,85 22.5,85 Z M42.5,85 C41.1192881,85 40,83.8807119 40,82.5 C40,81.1192881 41.1192881,80 42.5,80 C43.8807119,80 45,81.1192881 45,82.5 C45,83.8807119 43.8807119,85 42.5,85 Z" id="Combined-Shape"></path>
                            <path d="M2.5,105 C1.11928813,105 0,103.880712 0,102.5 C0,101.119288 1.11928813,100 2.5,100 C3.88071187,100 5,101.119288 5,102.5 C5,103.880712 3.88071187,105 2.5,105 Z M22.5,105 C21.1192881,105 20,103.880712 20,102.5 C20,101.119288 21.1192881,100 22.5,100 C23.8807119,100 25,101.119288 25,102.5 C25,103.880712 23.8807119,105 22.5,105 Z M42.5,105 C41.1192881,105 40,103.880712 40,102.5 C40,101.119288 41.1192881,100 42.5,100 C43.8807119,100 45,101.119288 45,102.5 C45,103.880712 43.8807119,105 42.5,105 Z" id="Combined-Shape"></path>
                            <path d="M2.5,5 C1.11928813,5 0,3.88071187 0,2.5 C0,1.11928813 1.11928813,0 2.5,0 C3.88071187,0 5,1.11928813 5,2.5 C5,3.88071187 3.88071187,5 2.5,5 Z M22.5,5 C21.1192881,5 20,3.88071187 20,2.5 C20,1.11928813 21.1192881,0 22.5,0 C23.8807119,0 25,1.11928813 25,2.5 C25,3.88071187 23.8807119,5 22.5,5 Z M42.5,5 C41.1192881,5 40,3.88071187 40,2.5 C40,1.11928813 41.1192881,0 42.5,0 C43.8807119,0 45,1.11928813 45,2.5 C45,3.88071187 43.8807119,5 42.5,5 Z" id="Combined-Shape"></path>
                            <path d="M2.5,25 C1.11928813,25 0,23.8807119 0,22.5 C0,21.1192881 1.11928813,20 2.5,20 C3.88071187,20 5,21.1192881 5,22.5 C5,23.8807119 3.88071187,25 2.5,25 Z M22.5,25 C21.1192881,25 20,23.8807119 20,22.5 C20,21.1192881 21.1192881,20 22.5,20 C23.8807119,20 25,21.1192881 25,22.5 C25,23.8807119 23.8807119,25 22.5,25 Z M42.5,25 C41.1192881,25 40,23.8807119 40,22.5 C40,21.1192881 41.1192881,20 42.5,20 C43.8807119,20 45,21.1192881 45,22.5 C45,23.8807119 43.8807119,25 42.5,25 Z" id="Combined-Shape"></path>
                            <path d="M2.5,45 C1.11928813,45 0,43.8807119 0,42.5 C0,41.1192881 1.11928813,40 2.5,40 C3.88071187,40 5,41.1192881 5,42.5 C5,43.8807119 3.88071187,45 2.5,45 Z M22.5,45 C21.1192881,45 20,43.8807119 20,42.5 C20,41.1192881 21.1192881,40 22.5,40 C23.8807119,40 25,41.1192881 25,42.5 C25,43.8807119 23.8807119,45 22.5,45 Z M42.5,45 C41.1192881,45 40,43.8807119 40,42.5 C40,41.1192881 41.1192881,40 42.5,40 C43.8807119,40 45,41.1192881 45,42.5 C45,43.8807119 43.8807119,45 42.5,45 Z" id="Combined-Shape"></path>
                        </g>
                        <g id="Group-20" opacity="0.18">
                            <path d="M2.5,65 C1.11928813,65 0,63.8807119 0,62.5 C0,61.1192881 1.11928813,60 2.5,60 C3.88071187,60 5,61.1192881 5,62.5 C5,63.8807119 3.88071187,65 2.5,65 Z M22.5,65 C21.1192881,65 20,63.8807119 20,62.5 C20,61.1192881 21.1192881,60 22.5,60 C23.8807119,60 25,61.1192881 25,62.5 C25,63.8807119 23.8807119,65 22.5,65 Z M42.5,65 C41.1192881,65 40,63.8807119 40,62.5 C40,61.1192881 41.1192881,60 42.5,60 C43.8807119,60 45,61.1192881 45,62.5 C45,63.8807119 43.8807119,65 42.5,65 Z" id="Combined-Shape"></path>
                            <path d="M2.5,85 C1.11928813,85 0,83.8807119 0,82.5 C0,81.1192881 1.11928813,80 2.5,80 C3.88071187,80 5,81.1192881 5,82.5 C5,83.8807119 3.88071187,85 2.5,85 Z M22.5,85 C21.1192881,85 20,83.8807119 20,82.5 C20,81.1192881 21.1192881,80 22.5,80 C23.8807119,80 25,81.1192881 25,82.5 C25,83.8807119 23.8807119,85 22.5,85 Z M42.5,85 C41.1192881,85 40,83.8807119 40,82.5 C40,81.1192881 41.1192881,80 42.5,80 C43.8807119,80 45,81.1192881 45,82.5 C45,83.8807119 43.8807119,85 42.5,85 Z" id="Combined-Shape"></path>
                            <path d="M2.5,105 C1.11928813,105 0,103.880712 0,102.5 C0,101.119288 1.11928813,100 2.5,100 C3.88071187,100 5,101.119288 5,102.5 C5,103.880712 3.88071187,105 2.5,105 Z M22.5,105 C21.1192881,105 20,103.880712 20,102.5 C20,101.119288 21.1192881,100 22.5,100 C23.8807119,100 25,101.119288 25,102.5 C25,103.880712 23.8807119,105 22.5,105 Z M42.5,105 C41.1192881,105 40,103.880712 40,102.5 C40,101.119288 41.1192881,100 42.5,100 C43.8807119,100 45,101.119288 45,102.5 C45,103.880712 43.8807119,105 42.5,105 Z" id="Combined-Shape"></path>
                            <path d="M2.5,5 C1.11928813,5 0,3.88071187 0,2.5 C0,1.11928813 1.11928813,0 2.5,0 C3.88071187,0 5,1.11928813 5,2.5 C5,3.88071187 3.88071187,5 2.5,5 Z M22.5,5 C21.1192881,5 20,3.88071187 20,2.5 C20,1.11928813 21.1192881,0 22.5,0 C23.8807119,0 25,1.11928813 25,2.5 C25,3.88071187 23.8807119,5 22.5,5 Z M42.5,5 C41.1192881,5 40,3.88071187 40,2.5 C40,1.11928813 41.1192881,0 42.5,0 C43.8807119,0 45,1.11928813 45,2.5 C45,3.88071187 43.8807119,5 42.5,5 Z" id="Combined-Shape"></path>
                            <path d="M2.5,25 C1.11928813,25 0,23.8807119 0,22.5 C0,21.1192881 1.11928813,20 2.5,20 C3.88071187,20 5,21.1192881 5,22.5 C5,23.8807119 3.88071187,25 2.5,25 Z M22.5,25 C21.1192881,25 20,23.8807119 20,22.5 C20,21.1192881 21.1192881,20 22.5,20 C23.8807119,20 25,21.1192881 25,22.5 C25,23.8807119 23.8807119,25 22.5,25 Z M42.5,25 C41.1192881,25 40,23.8807119 40,22.5 C40,21.1192881 41.1192881,20 42.5,20 C43.8807119,20 45,21.1192881 45,22.5 C45,23.8807119 43.8807119,25 42.5,25 Z" id="Combined-Shape"></path>
                            <path d="M2.5,45 C1.11928813,45 0,43.8807119 0,42.5 C0,41.1192881 1.11928813,40 2.5,40 C3.88071187,40 5,41.1192881 5,42.5 C5,43.8807119 3.88071187,45 2.5,45 Z M22.5,45 C21.1192881,45 20,43.8807119 20,42.5 C20,41.1192881 21.1192881,40 22.5,40 C23.8807119,40 25,41.1192881 25,42.5 C25,43.8807119 23.8807119,45 22.5,45 Z M42.5,45 C41.1192881,45 40,43.8807119 40,42.5 C40,41.1192881 41.1192881,40 42.5,40 C43.8807119,40 45,41.1192881 45,42.5 C45,43.8807119 43.8807119,45 42.5,45 Z" id="Combined-Shape"></path>
                        </g>
                        <g id="Group-19" opacity="0.175664646" transform="translate(120.000000, 0.000000)">
                            <g id="Group-18" transform="translate(0.000000, 20.000000)">
                                <circle id="Oval-3" cx="2.5" cy="2.5" r="2.5"></circle>
                                <circle id="Oval-3" cx="22.5" cy="2.5" r="2.5"></circle>
                                <circle id="Oval-3" cx="42.5" cy="2.5" r="2.5"></circle>
                                <circle id="Oval-3" cx="62.5" cy="2.5" r="2.5"></circle>
                                <circle id="Oval-3" cx="82.5" cy="2.5" r="2.5"></circle>
                                <circle id="Oval-3" cx="102.5" cy="2.5" r="2.5"></circle>
                                <circle id="Oval-3" cx="122.5" cy="2.5" r="2.5"></circle>
                            </g>
                            <g id="Group-18">
                                <circle id="Oval-3" cx="2.5" cy="2.5" r="2.5"></circle>
                                <circle id="Oval-3" cx="22.5" cy="2.5" r="2.5"></circle>
                                <circle id="Oval-3" cx="42.5" cy="2.5" r="2.5"></circle>
                                <circle id="Oval-3" cx="62.5" cy="2.5" r="2.5"></circle>
                                <circle id="Oval-3" cx="82.5" cy="2.5" r="2.5"></circle>
                                <circle id="Oval-3" cx="102.5" cy="2.5" r="2.5"></circle>
                                <circle id="Oval-3" cx="122.5" cy="2.5" r="2.5"></circle>
                            </g>
                        </g>
                    </g>
                    <g id="Group-21" transform="translate(0.000000, 120.000000)">
                        <g id="Group-19" opacity="0.175664646" transform="translate(120.000000, 40.000000)">
                            <g id="Group-18" transform="translate(0.000000, 60.000000)">
                                <circle id="Oval-3" cx="2.5" cy="2.5" r="2.5"></circle>
                                <circle id="Oval-3" cx="22.5" cy="2.5" r="2.5"></circle>
                                <circle id="Oval-3" cx="42.5" cy="2.5" r="2.5"></circle>
                                <circle id="Oval-3" cx="62.5" cy="2.5" r="2.5"></circle>
                                <circle id="Oval-3" cx="82.5" cy="2.5" r="2.5"></circle>
                                <circle id="Oval-3" cx="102.5" cy="2.5" r="2.5"></circle>
                                <circle id="Oval-3" cx="122.5" cy="2.5" r="2.5"></circle>
                            </g>
                            <g id="Group-18" transform="translate(0.000000, 40.000000)">
                                <circle id="Oval-3" cx="2.5" cy="2.5" r="2.5"></circle>
                                <circle id="Oval-3" cx="22.5" cy="2.5" r="2.5"></circle>
                                <circle id="Oval-3" cx="42.5" cy="2.5" r="2.5"></circle>
                                <circle id="Oval-3" cx="62.5" cy="2.5" r="2.5"></circle>
                                <circle id="Oval-3" cx="82.5" cy="2.5" r="2.5"></circle>
                                <circle id="Oval-3" cx="102.5" cy="2.5" r="2.5"></circle>
                                <circle id="Oval-3" cx="122.5" cy="2.5" r="2.5"></circle>
                            </g>
                            <g id="Group-18" transform="translate(0.000000, 20.000000)">
                                <circle id="Oval-3" cx="2.5" cy="2.5" r="2.5"></circle>
                                <circle id="Oval-3" cx="22.5" cy="2.5" r="2.5"></circle>
                                <circle id="Oval-3" cx="42.5" cy="2.5" r="2.5"></circle>
                                <circle id="Oval-3" cx="62.5" cy="2.5" r="2.5"></circle>
                                <circle id="Oval-3" cx="82.5" cy="2.5" r="2.5"></circle>
                                <circle id="Oval-3" cx="102.5" cy="2.5" r="2.5"></circle>
                                <circle id="Oval-3" cx="122.5" cy="2.5" r="2.5"></circle>
                            </g>
                            <g id="Group-18">
                                <circle id="Oval-3" cx="2.5" cy="2.5" r="2.5"></circle>
                                <circle id="Oval-3" cx="22.5" cy="2.5" r="2.5"></circle>
                                <circle id="Oval-3" cx="42.5" cy="2.5" r="2.5"></circle>
                                <circle id="Oval-3" cx="62.5" cy="2.5" r="2.5"></circle>
                                <circle id="Oval-3" cx="82.5" cy="2.5" r="2.5"></circle>
                                <circle id="Oval-3" cx="102.5" cy="2.5" r="2.5"></circle>
                                <circle id="Oval-3" cx="122.5" cy="2.5" r="2.5"></circle>
                            </g>
                        </g>
                        <g id="Group-20" transform="translate(60.000000, 0.000000)" opacity="0.18">
                            <path d="M2.5,65 C1.11928813,65 0,63.8807119 0,62.5 C0,61.1192881 1.11928813,60 2.5,60 C3.88071187,60 5,61.1192881 5,62.5 C5,63.8807119 3.88071187,65 2.5,65 Z M22.5,65 C21.1192881,65 20,63.8807119 20,62.5 C20,61.1192881 21.1192881,60 22.5,60 C23.8807119,60 25,61.1192881 25,62.5 C25,63.8807119 23.8807119,65 22.5,65 Z M42.5,65 C41.1192881,65 40,63.8807119 40,62.5 C40,61.1192881 41.1192881,60 42.5,60 C43.8807119,60 45,61.1192881 45,62.5 C45,63.8807119 43.8807119,65 42.5,65 Z" id="Combined-Shape"></path>
                            <path d="M2.5,85 C1.11928813,85 0,83.8807119 0,82.5 C0,81.1192881 1.11928813,80 2.5,80 C3.88071187,80 5,81.1192881 5,82.5 C5,83.8807119 3.88071187,85 2.5,85 Z M22.5,85 C21.1192881,85 20,83.8807119 20,82.5 C20,81.1192881 21.1192881,80 22.5,80 C23.8807119,80 25,81.1192881 25,82.5 C25,83.8807119 23.8807119,85 22.5,85 Z M42.5,85 C41.1192881,85 40,83.8807119 40,82.5 C40,81.1192881 41.1192881,80 42.5,80 C43.8807119,80 45,81.1192881 45,82.5 C45,83.8807119 43.8807119,85 42.5,85 Z" id="Combined-Shape"></path>
                            <path d="M2.5,105 C1.11928813,105 0,103.880712 0,102.5 C0,101.119288 1.11928813,100 2.5,100 C3.88071187,100 5,101.119288 5,102.5 C5,103.880712 3.88071187,105 2.5,105 Z M22.5,105 C21.1192881,105 20,103.880712 20,102.5 C20,101.119288 21.1192881,100 22.5,100 C23.8807119,100 25,101.119288 25,102.5 C25,103.880712 23.8807119,105 22.5,105 Z M42.5,105 C41.1192881,105 40,103.880712 40,102.5 C40,101.119288 41.1192881,100 42.5,100 C43.8807119,100 45,101.119288 45,102.5 C45,103.880712 43.8807119,105 42.5,105 Z" id="Combined-Shape"></path>
                            <path d="M2.5,5 C1.11928813,5 0,3.88071187 0,2.5 C0,1.11928813 1.11928813,0 2.5,0 C3.88071187,0 5,1.11928813 5,2.5 C5,3.88071187 3.88071187,5 2.5,5 Z M22.5,5 C21.1192881,5 20,3.88071187 20,2.5 C20,1.11928813 21.1192881,0 22.5,0 C23.8807119,0 25,1.11928813 25,2.5 C25,3.88071187 23.8807119,5 22.5,5 Z M42.5,5 C41.1192881,5 40,3.88071187 40,2.5 C40,1.11928813 41.1192881,0 42.5,0 C43.8807119,0 45,1.11928813 45,2.5 C45,3.88071187 43.8807119,5 42.5,5 Z" id="Combined-Shape"></path>
                            <path d="M2.5,25 C1.11928813,25 0,23.8807119 0,22.5 C0,21.1192881 1.11928813,20 2.5,20 C3.88071187,20 5,21.1192881 5,22.5 C5,23.8807119 3.88071187,25 2.5,25 Z M22.5,25 C21.1192881,25 20,23.8807119 20,22.5 C20,21.1192881 21.1192881,20 22.5,20 C23.8807119,20 25,21.1192881 25,22.5 C25,23.8807119 23.8807119,25 22.5,25 Z M42.5,25 C41.1192881,25 40,23.8807119 40,22.5 C40,21.1192881 41.1192881,20 42.5,20 C43.8807119,20 45,21.1192881 45,22.5 C45,23.8807119 43.8807119,25 42.5,25 Z" id="Combined-Shape"></path>
                            <path d="M2.5,45 C1.11928813,45 0,43.8807119 0,42.5 C0,41.1192881 1.11928813,40 2.5,40 C3.88071187,40 5,41.1192881 5,42.5 C5,43.8807119 3.88071187,45 2.5,45 Z M22.5,45 C21.1192881,45 20,43.8807119 20,42.5 C20,41.1192881 21.1192881,40 22.5,40 C23.8807119,40 25,41.1192881 25,42.5 C25,43.8807119 23.8807119,45 22.5,45 Z M42.5,45 C41.1192881,45 40,43.8807119 40,42.5 C40,41.1192881 41.1192881,40 42.5,40 C43.8807119,40 45,41.1192881 45,42.5 C45,43.8807119 43.8807119,45 42.5,45 Z" id="Combined-Shape"></path>
                        </g>
                        <g id="Group-20" opacity="0.18">
                            <path d="M2.5,65 C1.11928813,65 0,63.8807119 0,62.5 C0,61.1192881 1.11928813,60 2.5,60 C3.88071187,60 5,61.1192881 5,62.5 C5,63.8807119 3.88071187,65 2.5,65 Z M22.5,65 C21.1192881,65 20,63.8807119 20,62.5 C20,61.1192881 21.1192881,60 22.5,60 C23.8807119,60 25,61.1192881 25,62.5 C25,63.8807119 23.8807119,65 22.5,65 Z M42.5,65 C41.1192881,65 40,63.8807119 40,62.5 C40,61.1192881 41.1192881,60 42.5,60 C43.8807119,60 45,61.1192881 45,62.5 C45,63.8807119 43.8807119,65 42.5,65 Z" id="Combined-Shape"></path>
                            <path d="M2.5,85 C1.11928813,85 0,83.8807119 0,82.5 C0,81.1192881 1.11928813,80 2.5,80 C3.88071187,80 5,81.1192881 5,82.5 C5,83.8807119 3.88071187,85 2.5,85 Z M22.5,85 C21.1192881,85 20,83.8807119 20,82.5 C20,81.1192881 21.1192881,80 22.5,80 C23.8807119,80 25,81.1192881 25,82.5 C25,83.8807119 23.8807119,85 22.5,85 Z M42.5,85 C41.1192881,85 40,83.8807119 40,82.5 C40,81.1192881 41.1192881,80 42.5,80 C43.8807119,80 45,81.1192881 45,82.5 C45,83.8807119 43.8807119,85 42.5,85 Z" id="Combined-Shape"></path>
                            <path d="M2.5,105 C1.11928813,105 0,103.880712 0,102.5 C0,101.119288 1.11928813,100 2.5,100 C3.88071187,100 5,101.119288 5,102.5 C5,103.880712 3.88071187,105 2.5,105 Z M22.5,105 C21.1192881,105 20,103.880712 20,102.5 C20,101.119288 21.1192881,100 22.5,100 C23.8807119,100 25,101.119288 25,102.5 C25,103.880712 23.8807119,105 22.5,105 Z M42.5,105 C41.1192881,105 40,103.880712 40,102.5 C40,101.119288 41.1192881,100 42.5,100 C43.8807119,100 45,101.119288 45,102.5 C45,103.880712 43.8807119,105 42.5,105 Z" id="Combined-Shape"></path>
                            <path d="M2.5,5 C1.11928813,5 0,3.88071187 0,2.5 C0,1.11928813 1.11928813,0 2.5,0 C3.88071187,0 5,1.11928813 5,2.5 C5,3.88071187 3.88071187,5 2.5,5 Z M22.5,5 C21.1192881,5 20,3.88071187 20,2.5 C20,1.11928813 21.1192881,0 22.5,0 C23.8807119,0 25,1.11928813 25,2.5 C25,3.88071187 23.8807119,5 22.5,5 Z M42.5,5 C41.1192881,5 40,3.88071187 40,2.5 C40,1.11928813 41.1192881,0 42.5,0 C43.8807119,0 45,1.11928813 45,2.5 C45,3.88071187 43.8807119,5 42.5,5 Z" id="Combined-Shape"></path>
                            <path d="M2.5,25 C1.11928813,25 0,23.8807119 0,22.5 C0,21.1192881 1.11928813,20 2.5,20 C3.88071187,20 5,21.1192881 5,22.5 C5,23.8807119 3.88071187,25 2.5,25 Z M22.5,25 C21.1192881,25 20,23.8807119 20,22.5 C20,21.1192881 21.1192881,20 22.5,20 C23.8807119,20 25,21.1192881 25,22.5 C25,23.8807119 23.8807119,25 22.5,25 Z M42.5,25 C41.1192881,25 40,23.8807119 40,22.5 C40,21.1192881 41.1192881,20 42.5,20 C43.8807119,20 45,21.1192881 45,22.5 C45,23.8807119 43.8807119,25 42.5,25 Z" id="Combined-Shape"></path>
                            <path d="M2.5,45 C1.11928813,45 0,43.8807119 0,42.5 C0,41.1192881 1.11928813,40 2.5,40 C3.88071187,40 5,41.1192881 5,42.5 C5,43.8807119 3.88071187,45 2.5,45 Z M22.5,45 C21.1192881,45 20,43.8807119 20,42.5 C20,41.1192881 21.1192881,40 22.5,40 C23.8807119,40 25,41.1192881 25,42.5 C25,43.8807119 23.8807119,45 22.5,45 Z M42.5,45 C41.1192881,45 40,43.8807119 40,42.5 C40,41.1192881 41.1192881,40 42.5,40 C43.8807119,40 45,41.1192881 45,42.5 C45,43.8807119 43.8807119,45 42.5,45 Z" id="Combined-Shape"></path>
                        </g>
                        <g id="Group-19" opacity="0.175664646" transform="translate(120.000000, 0.000000)">
                            <g id="Group-18" transform="translate(0.000000, 20.000000)">
                                <circle id="Oval-3" cx="2.5" cy="2.5" r="2.5"></circle>
                                <circle id="Oval-3" cx="22.5" cy="2.5" r="2.5"></circle>
                                <circle id="Oval-3" cx="42.5" cy="2.5" r="2.5"></circle>
                                <circle id="Oval-3" cx="62.5" cy="2.5" r="2.5"></circle>
                                <circle id="Oval-3" cx="82.5" cy="2.5" r="2.5"></circle>
                                <circle id="Oval-3" cx="102.5" cy="2.5" r="2.5"></circle>
                                <circle id="Oval-3" cx="122.5" cy="2.5" r="2.5"></circle>
                            </g>
                            <g id="Group-18">
                                <circle id="Oval-3" cx="2.5" cy="2.5" r="2.5"></circle>
                                <circle id="Oval-3" cx="22.5" cy="2.5" r="2.5"></circle>
                                <circle id="Oval-3" cx="42.5" cy="2.5" r="2.5"></circle>
                                <circle id="Oval-3" cx="62.5" cy="2.5" r="2.5"></circle>
                                <circle id="Oval-3" cx="82.5" cy="2.5" r="2.5"></circle>
                                <circle id="Oval-3" cx="102.5" cy="2.5" r="2.5"></circle>
                                <circle id="Oval-3" cx="122.5" cy="2.5" r="2.5"></circle>
                            </g>
                        </g>
                    </g>
                </g>
                <g id="Group-16" transform="translate(0.000000, 480.000000)">
                    <g id="Group-21">
                        <g id="Group-19" opacity="0.175664646" transform="translate(120.000000, 40.000000)">
                            <g id="Group-18" transform="translate(0.000000, 60.000000)">
                                <circle id="Oval-3" cx="2.5" cy="2.5" r="2.5"></circle>
                                <circle id="Oval-3" cx="22.5" cy="2.5" r="2.5"></circle>
                                <circle id="Oval-3" cx="42.5" cy="2.5" r="2.5"></circle>
                                <circle id="Oval-3" cx="62.5" cy="2.5" r="2.5"></circle>
                                <circle id="Oval-3" cx="82.5" cy="2.5" r="2.5"></circle>
                                <circle id="Oval-3" cx="102.5" cy="2.5" r="2.5"></circle>
                                <circle id="Oval-3" cx="122.5" cy="2.5" r="2.5"></circle>
                            </g>
                            <g id="Group-18" transform="translate(0.000000, 40.000000)">
                                <circle id="Oval-3" cx="2.5" cy="2.5" r="2.5"></circle>
                                <circle id="Oval-3" cx="22.5" cy="2.5" r="2.5"></circle>
                                <circle id="Oval-3" cx="42.5" cy="2.5" r="2.5"></circle>
                                <circle id="Oval-3" cx="62.5" cy="2.5" r="2.5"></circle>
                                <circle id="Oval-3" cx="82.5" cy="2.5" r="2.5"></circle>
                                <circle id="Oval-3" cx="102.5" cy="2.5" r="2.5"></circle>
                                <circle id="Oval-3" cx="122.5" cy="2.5" r="2.5"></circle>
                            </g>
                            <g id="Group-18" transform="translate(0.000000, 20.000000)">
                                <circle id="Oval-3" cx="2.5" cy="2.5" r="2.5"></circle>
                                <circle id="Oval-3" cx="22.5" cy="2.5" r="2.5"></circle>
                                <circle id="Oval-3" cx="42.5" cy="2.5" r="2.5"></circle>
                                <circle id="Oval-3" cx="62.5" cy="2.5" r="2.5"></circle>
                                <circle id="Oval-3" cx="82.5" cy="2.5" r="2.5"></circle>
                                <circle id="Oval-3" cx="102.5" cy="2.5" r="2.5"></circle>
                                <circle id="Oval-3" cx="122.5" cy="2.5" r="2.5"></circle>
                            </g>
                            <g id="Group-18">
                                <circle id="Oval-3" cx="2.5" cy="2.5" r="2.5"></circle>
                                <circle id="Oval-3" cx="22.5" cy="2.5" r="2.5"></circle>
                                <circle id="Oval-3" cx="42.5" cy="2.5" r="2.5"></circle>
                                <circle id="Oval-3" cx="62.5" cy="2.5" r="2.5"></circle>
                                <circle id="Oval-3" cx="82.5" cy="2.5" r="2.5"></circle>
                                <circle id="Oval-3" cx="102.5" cy="2.5" r="2.5"></circle>
                                <circle id="Oval-3" cx="122.5" cy="2.5" r="2.5"></circle>
                            </g>
                        </g>
                        <g id="Group-20" transform="translate(60.000000, 0.000000)" opacity="0.18">
                            <path d="M2.5,65 C1.11928813,65 0,63.8807119 0,62.5 C0,61.1192881 1.11928813,60 2.5,60 C3.88071187,60 5,61.1192881 5,62.5 C5,63.8807119 3.88071187,65 2.5,65 Z M22.5,65 C21.1192881,65 20,63.8807119 20,62.5 C20,61.1192881 21.1192881,60 22.5,60 C23.8807119,60 25,61.1192881 25,62.5 C25,63.8807119 23.8807119,65 22.5,65 Z M42.5,65 C41.1192881,65 40,63.8807119 40,62.5 C40,61.1192881 41.1192881,60 42.5,60 C43.8807119,60 45,61.1192881 45,62.5 C45,63.8807119 43.8807119,65 42.5,65 Z" id="Combined-Shape"></path>
                            <path d="M2.5,85 C1.11928813,85 0,83.8807119 0,82.5 C0,81.1192881 1.11928813,80 2.5,80 C3.88071187,80 5,81.1192881 5,82.5 C5,83.8807119 3.88071187,85 2.5,85 Z M22.5,85 C21.1192881,85 20,83.8807119 20,82.5 C20,81.1192881 21.1192881,80 22.5,80 C23.8807119,80 25,81.1192881 25,82.5 C25,83.8807119 23.8807119,85 22.5,85 Z M42.5,85 C41.1192881,85 40,83.8807119 40,82.5 C40,81.1192881 41.1192881,80 42.5,80 C43.8807119,80 45,81.1192881 45,82.5 C45,83.8807119 43.8807119,85 42.5,85 Z" id="Combined-Shape"></path>
                            <path d="M2.5,105 C1.11928813,105 0,103.880712 0,102.5 C0,101.119288 1.11928813,100 2.5,100 C3.88071187,100 5,101.119288 5,102.5 C5,103.880712 3.88071187,105 2.5,105 Z M22.5,105 C21.1192881,105 20,103.880712 20,102.5 C20,101.119288 21.1192881,100 22.5,100 C23.8807119,100 25,101.119288 25,102.5 C25,103.880712 23.8807119,105 22.5,105 Z M42.5,105 C41.1192881,105 40,103.880712 40,102.5 C40,101.119288 41.1192881,100 42.5,100 C43.8807119,100 45,101.119288 45,102.5 C45,103.880712 43.8807119,105 42.5,105 Z" id="Combined-Shape"></path>
                            <path d="M2.5,5 C1.11928813,5 0,3.88071187 0,2.5 C0,1.11928813 1.11928813,0 2.5,0 C3.88071187,0 5,1.11928813 5,2.5 C5,3.88071187 3.88071187,5 2.5,5 Z M22.5,5 C21.1192881,5 20,3.88071187 20,2.5 C20,1.11928813 21.1192881,0 22.5,0 C23.8807119,0 25,1.11928813 25,2.5 C25,3.88071187 23.8807119,5 22.5,5 Z M42.5,5 C41.1192881,5 40,3.88071187 40,2.5 C40,1.11928813 41.1192881,0 42.5,0 C43.8807119,0 45,1.11928813 45,2.5 C45,3.88071187 43.8807119,5 42.5,5 Z" id="Combined-Shape"></path>
                            <path d="M2.5,25 C1.11928813,25 0,23.8807119 0,22.5 C0,21.1192881 1.11928813,20 2.5,20 C3.88071187,20 5,21.1192881 5,22.5 C5,23.8807119 3.88071187,25 2.5,25 Z M22.5,25 C21.1192881,25 20,23.8807119 20,22.5 C20,21.1192881 21.1192881,20 22.5,20 C23.8807119,20 25,21.1192881 25,22.5 C25,23.8807119 23.8807119,25 22.5,25 Z M42.5,25 C41.1192881,25 40,23.8807119 40,22.5 C40,21.1192881 41.1192881,20 42.5,20 C43.8807119,20 45,21.1192881 45,22.5 C45,23.8807119 43.8807119,25 42.5,25 Z" id="Combined-Shape"></path>
                            <path d="M2.5,45 C1.11928813,45 0,43.8807119 0,42.5 C0,41.1192881 1.11928813,40 2.5,40 C3.88071187,40 5,41.1192881 5,42.5 C5,43.8807119 3.88071187,45 2.5,45 Z M22.5,45 C21.1192881,45 20,43.8807119 20,42.5 C20,41.1192881 21.1192881,40 22.5,40 C23.8807119,40 25,41.1192881 25,42.5 C25,43.8807119 23.8807119,45 22.5,45 Z M42.5,45 C41.1192881,45 40,43.8807119 40,42.5 C40,41.1192881 41.1192881,40 42.5,40 C43.8807119,40 45,41.1192881 45,42.5 C45,43.8807119 43.8807119,45 42.5,45 Z" id="Combined-Shape"></path>
                        </g>
                        <g id="Group-20" opacity="0.18">
                            <path d="M2.5,65 C1.11928813,65 0,63.8807119 0,62.5 C0,61.1192881 1.11928813,60 2.5,60 C3.88071187,60 5,61.1192881 5,62.5 C5,63.8807119 3.88071187,65 2.5,65 Z M22.5,65 C21.1192881,65 20,63.8807119 20,62.5 C20,61.1192881 21.1192881,60 22.5,60 C23.8807119,60 25,61.1192881 25,62.5 C25,63.8807119 23.8807119,65 22.5,65 Z M42.5,65 C41.1192881,65 40,63.8807119 40,62.5 C40,61.1192881 41.1192881,60 42.5,60 C43.8807119,60 45,61.1192881 45,62.5 C45,63.8807119 43.8807119,65 42.5,65 Z" id="Combined-Shape"></path>
                            <path d="M2.5,85 C1.11928813,85 0,83.8807119 0,82.5 C0,81.1192881 1.11928813,80 2.5,80 C3.88071187,80 5,81.1192881 5,82.5 C5,83.8807119 3.88071187,85 2.5,85 Z M22.5,85 C21.1192881,85 20,83.8807119 20,82.5 C20,81.1192881 21.1192881,80 22.5,80 C23.8807119,80 25,81.1192881 25,82.5 C25,83.8807119 23.8807119,85 22.5,85 Z M42.5,85 C41.1192881,85 40,83.8807119 40,82.5 C40,81.1192881 41.1192881,80 42.5,80 C43.8807119,80 45,81.1192881 45,82.5 C45,83.8807119 43.8807119,85 42.5,85 Z" id="Combined-Shape"></path>
                            <path d="M2.5,105 C1.11928813,105 0,103.880712 0,102.5 C0,101.119288 1.11928813,100 2.5,100 C3.88071187,100 5,101.119288 5,102.5 C5,103.880712 3.88071187,105 2.5,105 Z M22.5,105 C21.1192881,105 20,103.880712 20,102.5 C20,101.119288 21.1192881,100 22.5,100 C23.8807119,100 25,101.119288 25,102.5 C25,103.880712 23.8807119,105 22.5,105 Z M42.5,105 C41.1192881,105 40,103.880712 40,102.5 C40,101.119288 41.1192881,100 42.5,100 C43.8807119,100 45,101.119288 45,102.5 C45,103.880712 43.8807119,105 42.5,105 Z" id="Combined-Shape"></path>
                            <path d="M2.5,5 C1.11928813,5 0,3.88071187 0,2.5 C0,1.11928813 1.11928813,0 2.5,0 C3.88071187,0 5,1.11928813 5,2.5 C5,3.88071187 3.88071187,5 2.5,5 Z M22.5,5 C21.1192881,5 20,3.88071187 20,2.5 C20,1.11928813 21.1192881,0 22.5,0 C23.8807119,0 25,1.11928813 25,2.5 C25,3.88071187 23.8807119,5 22.5,5 Z M42.5,5 C41.1192881,5 40,3.88071187 40,2.5 C40,1.11928813 41.1192881,0 42.5,0 C43.8807119,0 45,1.11928813 45,2.5 C45,3.88071187 43.8807119,5 42.5,5 Z" id="Combined-Shape"></path>
                            <path d="M2.5,25 C1.11928813,25 0,23.8807119 0,22.5 C0,21.1192881 1.11928813,20 2.5,20 C3.88071187,20 5,21.1192881 5,22.5 C5,23.8807119 3.88071187,25 2.5,25 Z M22.5,25 C21.1192881,25 20,23.8807119 20,22.5 C20,21.1192881 21.1192881,20 22.5,20 C23.8807119,20 25,21.1192881 25,22.5 C25,23.8807119 23.8807119,25 22.5,25 Z M42.5,25 C41.1192881,25 40,23.8807119 40,22.5 C40,21.1192881 41.1192881,20 42.5,20 C43.8807119,20 45,21.1192881 45,22.5 C45,23.8807119 43.8807119,25 42.5,25 Z" id="Combined-Shape"></path>
                            <path d="M2.5,45 C1.11928813,45 0,43.8807119 0,42.5 C0,41.1192881 1.11928813,40 2.5,40 C3.88071187,40 5,41.1192881 5,42.5 C5,43.8807119 3.88071187,45 2.5,45 Z M22.5,45 C21.1192881,45 20,43.8807119 20,42.5 C20,41.1192881 21.1192881,40 22.5,40 C23.8807119,40 25,41.1192881 25,42.5 C25,43.8807119 23.8807119,45 22.5,45 Z M42.5,45 C41.1192881,45 40,43.8807119 40,42.5 C40,41.1192881 41.1192881,40 42.5,40 C43.8807119,40 45,41.1192881 45,42.5 C45,43.8807119 43.8807119,45 42.5,45 Z" id="Combined-Shape"></path>
                        </g>
                        <g id="Group-19" opacity="0.175664646" transform="translate(120.000000, 0.000000)">
                            <g id="Group-18" transform="translate(0.000000, 20.000000)">
                                <circle id="Oval-3" cx="2.5" cy="2.5" r="2.5"></circle>
                                <circle id="Oval-3" cx="22.5" cy="2.5" r="2.5"></circle>
                                <circle id="Oval-3" cx="42.5" cy="2.5" r="2.5"></circle>
                                <circle id="Oval-3" cx="62.5" cy="2.5" r="2.5"></circle>
                                <circle id="Oval-3" cx="82.5" cy="2.5" r="2.5"></circle>
                                <circle id="Oval-3" cx="102.5" cy="2.5" r="2.5"></circle>
                                <circle id="Oval-3" cx="122.5" cy="2.5" r="2.5"></circle>
                            </g>
                            <g id="Group-18">
                                <circle id="Oval-3" cx="2.5" cy="2.5" r="2.5"></circle>
                                <circle id="Oval-3" cx="22.5" cy="2.5" r="2.5"></circle>
                                <circle id="Oval-3" cx="42.5" cy="2.5" r="2.5"></circle>
                                <circle id="Oval-3" cx="62.5" cy="2.5" r="2.5"></circle>
                                <circle id="Oval-3" cx="82.5" cy="2.5" r="2.5"></circle>
                                <circle id="Oval-3" cx="102.5" cy="2.5" r="2.5"></circle>
                                <circle id="Oval-3" cx="122.5" cy="2.5" r="2.5"></circle>
                            </g>
                        </g>
                    </g>
                    <g id="Group-21" transform="translate(0.000000, 120.000000)">
                        <g id="Group-19" opacity="0.175664646" transform="translate(120.000000, 40.000000)">
                            <g id="Group-18" transform="translate(0.000000, 60.000000)">
                                <circle id="Oval-3" cx="2.5" cy="2.5" r="2.5"></circle>
                                <circle id="Oval-3" cx="22.5" cy="2.5" r="2.5"></circle>
                                <circle id="Oval-3" cx="42.5" cy="2.5" r="2.5"></circle>
                                <circle id="Oval-3" cx="62.5" cy="2.5" r="2.5"></circle>
                                <circle id="Oval-3" cx="82.5" cy="2.5" r="2.5"></circle>
                                <circle id="Oval-3" cx="102.5" cy="2.5" r="2.5"></circle>
                                <circle id="Oval-3" cx="122.5" cy="2.5" r="2.5"></circle>
                            </g>
                            <g id="Group-18" transform="translate(0.000000, 40.000000)">
                                <circle id="Oval-3" cx="2.5" cy="2.5" r="2.5"></circle>
                                <circle id="Oval-3" cx="22.5" cy="2.5" r="2.5"></circle>
                                <circle id="Oval-3" cx="42.5" cy="2.5" r="2.5"></circle>
                                <circle id="Oval-3" cx="62.5" cy="2.5" r="2.5"></circle>
                                <circle id="Oval-3" cx="82.5" cy="2.5" r="2.5"></circle>
                                <circle id="Oval-3" cx="102.5" cy="2.5" r="2.5"></circle>
                                <circle id="Oval-3" cx="122.5" cy="2.5" r="2.5"></circle>
                            </g>
                            <g id="Group-18" transform="translate(0.000000, 20.000000)">
                                <circle id="Oval-3" cx="2.5" cy="2.5" r="2.5"></circle>
                                <circle id="Oval-3" cx="22.5" cy="2.5" r="2.5"></circle>
                                <circle id="Oval-3" cx="42.5" cy="2.5" r="2.5"></circle>
                                <circle id="Oval-3" cx="62.5" cy="2.5" r="2.5"></circle>
                                <circle id="Oval-3" cx="82.5" cy="2.5" r="2.5"></circle>
                                <circle id="Oval-3" cx="102.5" cy="2.5" r="2.5"></circle>
                                <circle id="Oval-3" cx="122.5" cy="2.5" r="2.5"></circle>
                            </g>
                            <g id="Group-18">
                                <circle id="Oval-3" cx="2.5" cy="2.5" r="2.5"></circle>
                                <circle id="Oval-3" cx="22.5" cy="2.5" r="2.5"></circle>
                                <circle id="Oval-3" cx="42.5" cy="2.5" r="2.5"></circle>
                                <circle id="Oval-3" cx="62.5" cy="2.5" r="2.5"></circle>
                                <circle id="Oval-3" cx="82.5" cy="2.5" r="2.5"></circle>
                                <circle id="Oval-3" cx="102.5" cy="2.5" r="2.5"></circle>
                                <circle id="Oval-3" cx="122.5" cy="2.5" r="2.5"></circle>
                            </g>
                        </g>
                        <g id="Group-20" transform="translate(60.000000, 0.000000)" opacity="0.18">
                            <path d="M2.5,65 C1.11928813,65 0,63.8807119 0,62.5 C0,61.1192881 1.11928813,60 2.5,60 C3.88071187,60 5,61.1192881 5,62.5 C5,63.8807119 3.88071187,65 2.5,65 Z M22.5,65 C21.1192881,65 20,63.8807119 20,62.5 C20,61.1192881 21.1192881,60 22.5,60 C23.8807119,60 25,61.1192881 25,62.5 C25,63.8807119 23.8807119,65 22.5,65 Z M42.5,65 C41.1192881,65 40,63.8807119 40,62.5 C40,61.1192881 41.1192881,60 42.5,60 C43.8807119,60 45,61.1192881 45,62.5 C45,63.8807119 43.8807119,65 42.5,65 Z" id="Combined-Shape"></path>
                            <path d="M2.5,85 C1.11928813,85 0,83.8807119 0,82.5 C0,81.1192881 1.11928813,80 2.5,80 C3.88071187,80 5,81.1192881 5,82.5 C5,83.8807119 3.88071187,85 2.5,85 Z M22.5,85 C21.1192881,85 20,83.8807119 20,82.5 C20,81.1192881 21.1192881,80 22.5,80 C23.8807119,80 25,81.1192881 25,82.5 C25,83.8807119 23.8807119,85 22.5,85 Z M42.5,85 C41.1192881,85 40,83.8807119 40,82.5 C40,81.1192881 41.1192881,80 42.5,80 C43.8807119,80 45,81.1192881 45,82.5 C45,83.8807119 43.8807119,85 42.5,85 Z" id="Combined-Shape"></path>
                            <path d="M2.5,105 C1.11928813,105 0,103.880712 0,102.5 C0,101.119288 1.11928813,100 2.5,100 C3.88071187,100 5,101.119288 5,102.5 C5,103.880712 3.88071187,105 2.5,105 Z M22.5,105 C21.1192881,105 20,103.880712 20,102.5 C20,101.119288 21.1192881,100 22.5,100 C23.8807119,100 25,101.119288 25,102.5 C25,103.880712 23.8807119,105 22.5,105 Z M42.5,105 C41.1192881,105 40,103.880712 40,102.5 C40,101.119288 41.1192881,100 42.5,100 C43.8807119,100 45,101.119288 45,102.5 C45,103.880712 43.8807119,105 42.5,105 Z" id="Combined-Shape"></path>
                            <path d="M2.5,5 C1.11928813,5 0,3.88071187 0,2.5 C0,1.11928813 1.11928813,0 2.5,0 C3.88071187,0 5,1.11928813 5,2.5 C5,3.88071187 3.88071187,5 2.5,5 Z M22.5,5 C21.1192881,5 20,3.88071187 20,2.5 C20,1.11928813 21.1192881,0 22.5,0 C23.8807119,0 25,1.11928813 25,2.5 C25,3.88071187 23.8807119,5 22.5,5 Z M42.5,5 C41.1192881,5 40,3.88071187 40,2.5 C40,1.11928813 41.1192881,0 42.5,0 C43.8807119,0 45,1.11928813 45,2.5 C45,3.88071187 43.8807119,5 42.5,5 Z" id="Combined-Shape"></path>
                            <path d="M2.5,25 C1.11928813,25 0,23.8807119 0,22.5 C0,21.1192881 1.11928813,20 2.5,20 C3.88071187,20 5,21.1192881 5,22.5 C5,23.8807119 3.88071187,25 2.5,25 Z M22.5,25 C21.1192881,25 20,23.8807119 20,22.5 C20,21.1192881 21.1192881,20 22.5,20 C23.8807119,20 25,21.1192881 25,22.5 C25,23.8807119 23.8807119,25 22.5,25 Z M42.5,25 C41.1192881,25 40,23.8807119 40,22.5 C40,21.1192881 41.1192881,20 42.5,20 C43.8807119,20 45,21.1192881 45,22.5 C45,23.8807119 43.8807119,25 42.5,25 Z" id="Combined-Shape"></path>
                            <path d="M2.5,45 C1.11928813,45 0,43.8807119 0,42.5 C0,41.1192881 1.11928813,40 2.5,40 C3.88071187,40 5,41.1192881 5,42.5 C5,43.8807119 3.88071187,45 2.5,45 Z M22.5,45 C21.1192881,45 20,43.8807119 20,42.5 C20,41.1192881 21.1192881,40 22.5,40 C23.8807119,40 25,41.1192881 25,42.5 C25,43.8807119 23.8807119,45 22.5,45 Z M42.5,45 C41.1192881,45 40,43.8807119 40,42.5 C40,41.1192881 41.1192881,40 42.5,40 C43.8807119,40 45,41.1192881 45,42.5 C45,43.8807119 43.8807119,45 42.5,45 Z" id="Combined-Shape"></path>
                        </g>
                        <g id="Group-20" opacity="0.18">
                            <path d="M2.5,65 C1.11928813,65 0,63.8807119 0,62.5 C0,61.1192881 1.11928813,60 2.5,60 C3.88071187,60 5,61.1192881 5,62.5 C5,63.8807119 3.88071187,65 2.5,65 Z M22.5,65 C21.1192881,65 20,63.8807119 20,62.5 C20,61.1192881 21.1192881,60 22.5,60 C23.8807119,60 25,61.1192881 25,62.5 C25,63.8807119 23.8807119,65 22.5,65 Z M42.5,65 C41.1192881,65 40,63.8807119 40,62.5 C40,61.1192881 41.1192881,60 42.5,60 C43.8807119,60 45,61.1192881 45,62.5 C45,63.8807119 43.8807119,65 42.5,65 Z" id="Combined-Shape"></path>
                            <path d="M2.5,85 C1.11928813,85 0,83.8807119 0,82.5 C0,81.1192881 1.11928813,80 2.5,80 C3.88071187,80 5,81.1192881 5,82.5 C5,83.8807119 3.88071187,85 2.5,85 Z M22.5,85 C21.1192881,85 20,83.8807119 20,82.5 C20,81.1192881 21.1192881,80 22.5,80 C23.8807119,80 25,81.1192881 25,82.5 C25,83.8807119 23.8807119,85 22.5,85 Z M42.5,85 C41.1192881,85 40,83.8807119 40,82.5 C40,81.1192881 41.1192881,80 42.5,80 C43.8807119,80 45,81.1192881 45,82.5 C45,83.8807119 43.8807119,85 42.5,85 Z" id="Combined-Shape"></path>
                            <path d="M2.5,105 C1.11928813,105 0,103.880712 0,102.5 C0,101.119288 1.11928813,100 2.5,100 C3.88071187,100 5,101.119288 5,102.5 C5,103.880712 3.88071187,105 2.5,105 Z M22.5,105 C21.1192881,105 20,103.880712 20,102.5 C20,101.119288 21.1192881,100 22.5,100 C23.8807119,100 25,101.119288 25,102.5 C25,103.880712 23.8807119,105 22.5,105 Z M42.5,105 C41.1192881,105 40,103.880712 40,102.5 C40,101.119288 41.1192881,100 42.5,100 C43.8807119,100 45,101.119288 45,102.5 C45,103.880712 43.8807119,105 42.5,105 Z" id="Combined-Shape"></path>
                            <path d="M2.5,5 C1.11928813,5 0,3.88071187 0,2.5 C0,1.11928813 1.11928813,0 2.5,0 C3.88071187,0 5,1.11928813 5,2.5 C5,3.88071187 3.88071187,5 2.5,5 Z M22.5,5 C21.1192881,5 20,3.88071187 20,2.5 C20,1.11928813 21.1192881,0 22.5,0 C23.8807119,0 25,1.11928813 25,2.5 C25,3.88071187 23.8807119,5 22.5,5 Z M42.5,5 C41.1192881,5 40,3.88071187 40,2.5 C40,1.11928813 41.1192881,0 42.5,0 C43.8807119,0 45,1.11928813 45,2.5 C45,3.88071187 43.8807119,5 42.5,5 Z" id="Combined-Shape"></path>
                            <path d="M2.5,25 C1.11928813,25 0,23.8807119 0,22.5 C0,21.1192881 1.11928813,20 2.5,20 C3.88071187,20 5,21.1192881 5,22.5 C5,23.8807119 3.88071187,25 2.5,25 Z M22.5,25 C21.1192881,25 20,23.8807119 20,22.5 C20,21.1192881 21.1192881,20 22.5,20 C23.8807119,20 25,21.1192881 25,22.5 C25,23.8807119 23.8807119,25 22.5,25 Z M42.5,25 C41.1192881,25 40,23.8807119 40,22.5 C40,21.1192881 41.1192881,20 42.5,20 C43.8807119,20 45,21.1192881 45,22.5 C45,23.8807119 43.8807119,25 42.5,25 Z" id="Combined-Shape"></path>
                            <path d="M2.5,45 C1.11928813,45 0,43.8807119 0,42.5 C0,41.1192881 1.11928813,40 2.5,40 C3.88071187,40 5,41.1192881 5,42.5 C5,43.8807119 3.88071187,45 2.5,45 Z M22.5,45 C21.1192881,45 20,43.8807119 20,42.5 C20,41.1192881 21.1192881,40 22.5,40 C23.8807119,40 25,41.1192881 25,42.5 C25,43.8807119 23.8807119,45 22.5,45 Z M42.5,45 C41.1192881,45 40,43.8807119 40,42.5 C40,41.1192881 41.1192881,40 42.5,40 C43.8807119,40 45,41.1192881 45,42.5 C45,43.8807119 43.8807119,45 42.5,45 Z" id="Combined-Shape"></path>
                        </g>
                        <g id="Group-19" opacity="0.175664646" transform="translate(120.000000, 0.000000)">
                            <g id="Group-18" transform="translate(0.000000, 20.000000)">
                                <circle id="Oval-3" cx="2.5" cy="2.5" r="2.5"></circle>
                                <circle id="Oval-3" cx="22.5" cy="2.5" r="2.5"></circle>
                                <circle id="Oval-3" cx="42.5" cy="2.5" r="2.5"></circle>
                                <circle id="Oval-3" cx="62.5" cy="2.5" r="2.5"></circle>
                                <circle id="Oval-3" cx="82.5" cy="2.5" r="2.5"></circle>
                                <circle id="Oval-3" cx="102.5" cy="2.5" r="2.5"></circle>
                                <circle id="Oval-3" cx="122.5" cy="2.5" r="2.5"></circle>
                            </g>
                            <g id="Group-18">
                                <circle id="Oval-3" cx="2.5" cy="2.5" r="2.5"></circle>
                                <circle id="Oval-3" cx="22.5" cy="2.5" r="2.5"></circle>
                                <circle id="Oval-3" cx="42.5" cy="2.5" r="2.5"></circle>
                                <circle id="Oval-3" cx="62.5" cy="2.5" r="2.5"></circle>
                                <circle id="Oval-3" cx="82.5" cy="2.5" r="2.5"></circle>
                                <circle id="Oval-3" cx="102.5" cy="2.5" r="2.5"></circle>
                                <circle id="Oval-3" cx="122.5" cy="2.5" r="2.5"></circle>
                            </g>
                        </g>
                    </g>
                </g>
            </g>
        </g>
    </g>
</svg>